<?xml version="1.0" standalone="no"?>
<!DOCTYPE svg PUBLIC "-//W3C//DTD SVG 20010904//EN"
 "http://www.w3.org/TR/2001/REC-SVG-20010904/DTD/svg10.dtd">
<svg version="1.0" xmlns="http://www.w3.org/2000/svg"
 width="499.000000pt" height="499.000000pt" viewBox="0 0 499.000000 499.000000"
 preserveAspectRatio="xMidYMid meet">

<g transform="translate(0.000000,499.000000) scale(0.100000,-0.100000)"
fill="#000000" stroke="none">
<path d="M2410 4716 c0 -8 5 -27 11 -43 22 -57 -7 -163 -44 -163 -8 0 -7 4 1
12 13 13 15 49 6 97 -9 42 -24 39 -24 -5 0 -45 -15 -74 -40 -74 -13 0 -18 -5
-14 -15 5 -11 -1 -15 -23 -15 -38 0 -135 -33 -187 -64 -64 -38 -111 -94 -147
-174 -31 -71 -50 -94 -29 -36 9 27 9 28 -5 10 -8 -11 -15 -26 -15 -33 0 -7 -5
-13 -11 -13 -23 0 -70 -42 -65 -58 3 -12 -12 -29 -49 -56 -30 -21 -52 -43 -48
-49 3 -6 1 -7 -5 -3 -26 16 -116 -96 -147 -184 -24 -69 -30 -259 -11 -350 9
-41 23 -80 31 -86 8 -6 15 -18 15 -26 0 -8 9 -40 19 -71 l20 -56 -34 -34
c-107 -107 -2 -287 188 -322 61 -12 84 -65 53 -123 -27 -52 -49 -112 -43 -118
3 -4 20 -2 36 4 48 17 40 -10 -21 -76 -29 -31 -59 -62 -65 -70 -20 -21 -26
-58 -13 -81 15 -29 23 -27 81 19 28 22 60 40 72 40 20 0 21 0 1 -18 -10 -9
-39 -33 -64 -52 -61 -47 -89 -79 -96 -107 -4 -13 -10 -23 -14 -23 -8 0 -34
-57 -29 -63 2 -3 -5 -13 -17 -23 -11 -11 -38 -48 -59 -84 -21 -36 -43 -68 -48
-71 -5 -3 -9 -10 -8 -15 0 -5 -10 -25 -21 -44 -23 -36 -53 -92 -94 -171 -13
-26 -24 -58 -24 -72 0 -13 -7 -44 -15 -68 -18 -50 -14 -69 15 -69 11 0 23 -6
26 -14 6 -16 37 -29 104 -46 25 -7 52 -18 62 -27 11 -9 18 -11 23 -4 3 6 15
11 25 11 13 0 33 26 67 85 26 46 51 85 54 85 3 0 9 -28 13 -63 5 -47 14 -74
40 -112 24 -36 36 -66 41 -108 4 -35 12 -60 21 -64 7 -3 16 -19 18 -36 30
-206 30 -208 13 -236 -16 -27 -15 -29 15 -71 31 -42 31 -43 18 -89 -7 -25 -14
-57 -15 -71 -1 -14 -10 -38 -20 -53 -16 -26 -17 -31 -2 -80 9 -28 18 -66 21
-84 9 -64 27 -103 57 -118 44 -23 52 -47 33 -97 -23 -59 -31 -66 -67 -70 -29
-3 -27 -5 21 -16 99 -23 140 -17 201 29 30 23 70 48 90 55 l36 14 -47 -4 c-28
-2 -48 1 -48 6 0 6 -11 3 -24 -6 -19 -12 -27 -13 -32 -3 -4 6 -4 9 1 5 4 -4
15 -2 22 4 16 13 95 22 181 22 28 0 52 1 52 2 0 2 -13 10 -30 19 -41 21 -135
19 -189 -5 -49 -22 -51 -23 -51 -12 0 10 94 62 113 62 9 0 19 5 23 11 5 9 -14
10 -70 4 l-76 -7 0 27 c0 48 74 64 205 43 27 -4 34 36 8 46 -10 4 -19 2 -21
-3 -5 -16 -38 -13 -52 4 -10 12 -10 15 1 15 12 0 12 2 0 9 -7 5 -10 14 -7 20
4 6 2 11 -3 11 -6 0 -11 4 -11 9 0 6 12 9 28 8 l27 -2 1 80 c2 89 14 146 46
218 27 60 45 60 53 -1 3 -26 10 -72 15 -102 7 -47 5 -60 -12 -87 -20 -33 -20
-33 0 -65 19 -31 24 -100 8 -115 -11 -11 -6 -47 10 -78 9 -18 14 -49 13 -78
-2 -38 1 -50 18 -62 30 -21 53 -76 53 -127 0 -29 4 -45 13 -45 6 0 118 -3 247
-5 129 -3 203 -3 164 1 -56 5 -77 11 -102 33 -18 15 -32 32 -32 38 0 7 -13 9
-37 5 l-38 -7 35 22 c19 12 46 32 60 45 14 12 38 29 54 38 30 14 29 15 -27 11
-31 -1 -66 -8 -78 -14 -16 -9 -24 -9 -33 1 -8 9 -8 10 1 5 12 -6 37 13 46 36
4 9 8 9 14 3 9 -12 163 -7 163 5 0 19 -33 31 -88 32 -46 1 -69 -5 -96 -21 -54
-34 -66 -20 -16 17 30 22 55 32 79 32 28 0 33 3 21 10 -8 6 -42 10 -75 9 -33
-1 -65 -1 -71 0 -23 2 -23 31 -1 52 19 18 32 20 90 17 37 -2 67 0 67 4 0 4 -6
8 -14 8 -8 0 -17 6 -19 13 -4 9 -6 9 -6 0 -1 -9 -8 -10 -25 -3 -13 5 -27 6
-30 3 -3 -4 -6 -1 -6 6 0 7 -4 10 -8 7 -9 -5 -42 55 -42 75 0 7 16 10 39 7 22
-2 39 -1 39 2 -1 3 2 17 6 32 11 37 -1 67 -30 74 -22 6 -23 8 -8 18 14 11 15
16 4 36 -8 15 -10 39 -5 69 3 25 7 57 8 71 1 14 7 30 13 35 7 6 23 42 37 81
21 58 24 82 20 133 -7 72 0 81 59 81 60 0 68 7 68 59 0 25 9 65 20 89 l20 44
26 -21 c15 -12 38 -21 52 -21 24 0 24 -2 19 -52 -2 -29 -1 -63 4 -76 8 -20 15
-23 47 -20 l37 3 -3 -37 c-2 -30 1 -38 14 -38 14 0 16 7 11 49 -7 63 -33 125
-48 115 -7 -4 -9 -20 -6 -40 3 -19 1 -37 -5 -40 -15 -9 -29 17 -21 41 4 11 9
38 12 60 6 38 9 41 71 66 71 28 81 44 61 101 -8 22 -8 35 -1 42 17 17 11 43
-15 60 -14 9 -23 21 -20 26 3 5 -3 13 -12 19 -13 7 -14 10 -4 11 11 0 11 4 -2
18 -10 10 -17 24 -17 30 0 7 -4 12 -10 12 -5 0 -7 7 -4 15 4 10 0 15 -12 15
-13 0 -15 3 -6 8 9 6 7 13 -8 29 -14 15 -16 23 -7 26 7 3 4 6 -6 6 -10 1 -17
7 -14 14 2 6 -8 20 -22 29 -22 15 -23 18 -7 18 18 0 18 1 -2 19 -12 10 -26 36
-32 57 l-10 39 4 -44 c3 -32 0 -51 -13 -67 -14 -18 -18 -44 -19 -134 -2 -109
-16 -237 -26 -248 -3 -3 -6 6 -6 20 0 21 -4 25 -20 21 -33 -9 -98 26 -123 66
-13 21 -27 68 -33 111 -11 72 -11 70 -7 -55 l5 -130 46 -43 c44 -40 50 -43 95
-39 30 3 47 0 47 -7 0 -7 -25 -13 -65 -14 -55 -3 -66 -1 -72 15 -3 10 -19 32
-35 49 -27 29 -29 38 -39 152 -5 67 -14 143 -19 169 -6 26 -17 86 -24 133 -8
47 -27 148 -42 225 -15 77 -27 151 -28 165 -1 14 -9 28 -18 32 -12 5 -18 18
-18 38 0 30 13 40 26 19 4 -8 12 -2 21 15 16 31 33 26 33 -9 0 -23 3 -25 51
-23 42 0 58 -5 96 -31 27 -19 52 -30 62 -26 28 9 60 48 67 83 6 28 2 37 -30
67 -21 19 -47 35 -59 35 l-22 0 21 18 c16 12 23 33 28 74 6 52 4 58 -16 70
-28 15 -44 13 -132 -18 -38 -13 -89 -24 -113 -24 -55 0 -182 28 -208 46 -11 8
-35 14 -55 14 -36 0 -99 31 -113 56 -5 8 -12 12 -18 9 -16 -11 -41 23 -34 47
5 18 4 20 -4 8 -10 -13 -11 -13 -12 0 -1 8 0 21 1 29 1 9 -4 12 -14 8 -9 -4
-16 -3 -16 1 0 4 24 16 53 26 75 26 188 84 216 109 45 41 80 109 97 186 16 76
32 101 65 101 12 0 18 -13 23 -51 17 -125 75 -226 158 -276 94 -57 222 -93
210 -59 -5 12 19 26 46 26 18 0 22 -5 22 -31 0 -19 4 -28 11 -24 5 4 9 19 7
33 -2 19 2 28 15 30 12 2 17 -3 18 -20 0 -13 4 -32 8 -42 6 -17 10 -15 31 19
18 29 21 41 12 55 -9 14 -6 22 14 41 13 12 35 47 49 77 58 126 71 229 35 274
-18 23 -18 31 -8 88 8 46 8 72 -1 100 -13 44 -14 75 -1 43 8 -19 12 -20 35
-10 22 10 25 17 23 52 -2 30 1 40 12 40 8 0 18 8 23 18 4 11 16 21 27 24 26 7
26 9 -10 76 -32 57 -94 112 -161 142 -24 10 -28 14 -14 14 30 1 97 -33 137
-68 43 -38 75 -42 34 -5 -25 23 -27 31 -22 68 14 93 4 114 -84 173 -48 33 -63
38 -112 38 -32 0 -63 -6 -70 -13 -27 -27 -36 -13 -34 57 1 51 -3 74 -15 87 -9
11 -27 44 -40 74 -36 87 -89 158 -128 171 -81 27 -171 -16 -263 -125 l-58 -69
72 -40 c85 -45 105 -61 125 -102 13 -25 10 -23 -21 12 -26 30 -68 58 -137 93
-56 27 -107 50 -114 50 -8 0 -11 7 -8 19 2 10 -1 38 -8 62 -7 24 -13 49 -14
54 -5 36 -85 113 -85 81z m630 -240 c0 -26 -6 -18 -14 19 -5 22 -4 26 4 15 5
-8 10 -24 10 -34z m-50 -11 c0 -5 -5 -3 -10 5 -5 8 -10 20 -10 25 0 6 5 3 10
-5 5 -8 10 -19 10 -25z m-344 -46 c23 -11 48 -27 56 -36 11 -14 10 -15 -12 -8
-14 4 -52 20 -85 35 -53 25 -56 28 -31 29 16 1 49 -8 72 -20z m-492 -51 c-33
-37 -52 -72 -73 -134 -13 -38 -20 -50 -21 -34 0 45 82 190 108 190 3 0 -3 -10
-14 -22z m706 -283 c93 -32 149 -64 190 -112 40 -46 97 -165 110 -230 5 -27
12 -56 15 -65 9 -22 -2 -22 -47 -4 -19 8 -39 26 -46 40 -19 42 -83 106 -137
137 -59 34 -85 37 -85 10 0 -13 21 -30 67 -56 69 -38 133 -83 133 -94 0 -3
-39 -6 -88 -6 -69 -1 -95 -5 -128 -23 -44 -22 -90 -71 -105 -109 -5 -13 -13
-23 -19 -23 -5 0 -10 -16 -10 -35 0 -32 -3 -35 -29 -35 -30 0 -41 14 -41 51 0
15 -5 19 -19 14 -15 -4 -25 6 -50 50 -50 88 -142 135 -266 135 -65 0 -194 -29
-242 -53 l-28 -15 -3 67 c-2 56 2 75 27 126 16 33 42 75 57 92 58 65 185 123
354 162 25 6 105 8 181 6 110 -4 150 -10 209 -30z m-1030 -29 c0 -2 -17 -16
-37 -31 l-38 -27 33 31 c30 29 42 37 42 27z m-127 -109 c-28 -30 -60 -71 -71
-93 -21 -42 -42 -126 -43 -177 0 -31 -1 -31 -11 -9 -15 30 12 146 48 208 21
36 108 124 123 124 2 0 -19 -24 -46 -53z m22 -88 c-9 -17 -20 -49 -25 -72 -7
-40 -8 -40 -9 -9 -1 29 32 112 44 112 3 0 -2 -14 -10 -31z m-67 -24 c-12 -24
-23 -43 -26 -41 -4 5 36 86 43 86 3 0 -5 -20 -17 -45z m-42 -136 c-11 -58 -14
-66 -15 -35 -1 35 18 120 25 113 2 -2 -3 -37 -10 -78z m1682 5 c-3 -14 -5 -12
-10 9 -3 19 -2 25 4 19 6 -6 8 -18 6 -28z m-883 -65 c17 -8 28 -19 25 -24 -3
-6 -8 -9 -11 -8 -35 12 -146 14 -184 3 -86 -24 -195 -151 -195 -228 0 -34 27
-129 39 -136 3 -2 6 28 6 68 0 138 83 244 197 254 83 6 147 -28 77 -42 -41 -8
-84 -53 -100 -104 -10 -35 -9 -48 5 -86 30 -79 114 -109 185 -65 18 11 35 18
37 16 2 -2 -12 -22 -32 -45 -49 -57 -111 -75 -246 -70 l-100 3 -38 43 c-48 54
-74 143 -68 236 3 54 9 72 35 103 58 72 144 105 263 100 41 -2 89 -10 105 -18z
m623 -5 c26 -7 30 -24 5 -24 -14 0 -13 -3 5 -23 28 -30 70 -126 78 -180 11
-68 17 -70 54 -16 26 38 36 46 42 35 13 -23 -7 -60 -46 -87 -20 -13 -36 -32
-36 -42 0 -23 23 -11 64 32 36 37 46 39 46 7 0 -57 -67 -163 -95 -152 -8 3
-15 0 -17 -6 -4 -12 -150 -12 -196 1 -44 13 -100 48 -112 71 -14 25 -13 37 2
22 23 -23 77 -14 109 17 39 39 38 57 -1 21 -35 -33 -64 -40 -100 -26 -27 12
-40 25 -40 43 0 8 9 7 30 -4 54 -27 110 0 118 55 2 15 8 30 14 33 14 9 -4 41
-43 73 -39 34 -91 35 -113 4 -15 -21 -16 -21 -16 -3 0 11 4 25 8 31 15 23 73
44 124 44 38 0 49 3 38 10 -12 8 -12 10 5 11 l20 0 -20 9 c-38 16 -91 11 -121
-12 l-29 -23 16 25 c31 49 128 75 207 54z m92 -57 c0 -23 -2 -22 -19 10 -10
19 -9 22 4 17 8 -4 15 -15 15 -27z m50 -16 c0 -16 -29 -7 -33 10 -4 16 -2 17
14 8 10 -5 19 -13 19 -18z m-951 16 c-2 -2 -28 -26 -58 -53 -30 -27 -49 -40
-43 -29 12 23 48 57 77 73 19 11 33 16 24 9z m-356 -112 c-35 -27 -43 -17 -15
20 14 19 18 20 25 8 6 -10 3 -19 -10 -28z m654 13 c-3 -7 -5 -2 -5 12 0 14 2
19 5 13 2 -7 2 -19 0 -25z m-62 -9 c12 -19 -5 -23 -22 -6 -16 16 -16 17 -1 17
9 0 20 -5 23 -11z m-566 -42 c0 -14 -22 -40 -62 -74 -98 -82 -98 -47 0 57 49
50 63 54 62 17z m431 14 c-18 -35 -11 -71 20 -103 27 -26 36 -30 68 -25 20 4
45 16 55 28 21 26 22 18 3 -20 -8 -15 -30 -35 -49 -45 -34 -19 -35 -19 -74 4
-30 16 -43 32 -52 60 -15 51 -14 67 7 95 20 29 37 33 22 6z m605 10 c10 -18
-17 -23 -33 -7 -15 15 -15 16 5 16 12 0 24 -4 28 -9z m-1196 -98 c-18 -21 -38
-42 -43 -48 -5 -6 -7 -6 -5 2 6 18 63 83 73 83 6 0 -6 -17 -25 -37z m-50 -70
c1 -18 -18 -16 -25 2 -4 8 -3 23 1 33 7 16 8 15 15 -3 5 -11 9 -26 9 -32z
m243 -150 c6 -16 21 -68 33 -118 13 -49 26 -99 31 -110 17 -46 -46 29 -81 96
-32 61 -35 75 -29 114 7 52 28 60 46 18z m-88 -117 c-7 -23 -22 -42 -27 -35
-2 2 -2 24 1 48 4 41 6 43 18 26 8 -10 11 -28 8 -39z m525 -476 c10 -43 12
-91 7 -164 -5 -73 -4 -105 4 -108 8 -2 7 -32 -2 -107 l-13 -104 -78 -32 c-42
-18 -75 -30 -72 -25 3 4 34 20 70 36 56 25 65 32 64 54 -2 21 -2 22 -6 4 -4
-22 -40 -44 -72 -44 -26 0 -81 29 -81 44 0 6 5 17 12 24 21 21 -2 13 -36 -13
-18 -14 -35 -25 -39 -25 -3 0 -19 18 -37 40 l-31 39 42 38 c24 21 48 37 56 37
7 -1 10 2 8 6 -8 13 -45 8 -38 -5 4 -5 2 -6 -2 -2 -18 16 -13 37 8 38 12 1 -5
7 -38 14 l-60 12 110 1 c61 1 130 -3 155 -8 25 -4 46 -7 48 -6 1 2 7 42 13 90
10 83 7 119 -18 209 -2 9 0 17 4 17 5 0 15 -27 22 -60z m161 -17 c0 -34 4 -52
10 -48 6 3 10 15 10 25 0 14 5 18 18 13 23 -9 30 -20 43 -68 5 -22 12 -48 15
-57 5 -16 -3 -18 -60 -18 l-66 0 0 -66 0 -65 54 6 c88 11 114 -18 86 -101 -8
-24 -15 -62 -19 -96 -1 -5 -32 -8 -70 -8 l-68 0 -7 -52 c-3 -29 -6 -70 -6 -90
l0 -38 63 0 64 0 -4 -47 c-8 -84 -61 -157 -77 -106 -6 18 -44 48 -52 40 -6 -5
-12 -48 -24 -167 -17 -169 -23 -210 -30 -210 -4 0 -3 26 2 58 5 31 11 98 13
147 2 50 6 119 10 155 4 36 9 83 11 105 1 22 5 63 9 90 11 102 15 153 20 265
2 63 7 160 11 215 4 55 8 118 9 140 3 58 4 59 20 45 10 -8 15 -31 15 -67z
m-288 -34 c28 -15 77 -71 78 -89 0 -13 1 -13 11 0 8 11 9 1 5 -39 -3 -29 -8
-56 -10 -58 -9 -9 -135 17 -166 35 -20 11 -34 29 -41 54 -12 47 0 74 44 93 39
17 53 18 79 4z m92 -643 c-13 -98 -26 -182 -30 -185 -3 -3 -4 17 0 44 3 28 11
102 17 165 10 105 24 169 33 159 3 -2 -6 -85 -20 -183z m-20 117 c-3 -21 -10
-54 -13 -73 l-8 -35 -18 40 c-29 64 -28 72 10 93 32 18 36 14 29 -25z m-367
-95 c-3 -7 -5 -2 -5 12 0 14 2 19 5 13 2 -7 2 -19 0 -25z m-10 -65 c-3 -10 -5
-2 -5 17 0 19 2 27 5 18 2 -10 2 -26 0 -35z m-10 -45 c-3 -8 -6 -5 -6 6 -1 11
2 17 5 13 3 -3 4 -12 1 -19z m938 -129 c4 -5 -1 -20 -12 -31 -18 -21 -18 -21
2 -14 15 5 17 4 8 -5 -17 -17 -33 -2 -33 32 0 29 22 41 35 18z m-11 -156 c-4
-43 -8 -80 -10 -82 -2 -2 -4 32 -4 77 0 50 4 82 10 82 7 0 9 -26 4 -77z m-367
15 c-3 -7 -5 -2 -5 12 0 14 2 19 5 13 2 -7 2 -19 0 -25z m30 -5 c-3 -10 -5 -4
-5 12 0 17 2 24 5 18 2 -7 2 -21 0 -30z m30 5 c-3 -7 -5 -2 -5 12 0 14 2 19 5
13 2 -7 2 -19 0 -25z m220 -528 c2 0 3 -7 3 -15 0 -19 -1 -19 -51 1 -47 19
-35 37 15 23 17 -5 32 -9 33 -9z m-577 -95 c18 -10 20 -14 8 -15 -23 0 -48 11
-48 21 0 12 11 11 40 -6z m525 -22 c-63 -16 -65 -16 -65 1 0 10 13 16 38 18
66 5 81 -5 27 -19z m36 -186 c-8 -8 -11 -7 -11 5 0 9 -6 18 -14 21 -14 5 -27
52 -18 62 3 3 16 -13 30 -36 18 -30 21 -44 13 -52z m-481 17 c0 -39 -14 -35
-30 8 -11 29 -13 45 -6 50 13 8 35 -28 36 -58z m-50 21 c0 -5 -5 -3 -10 5 -5
8 -10 20 -10 25 0 6 5 3 10 -5 5 -8 10 -19 10 -25z m13 -35 c3 -11 1 -18 -4
-14 -5 3 -9 12 -9 20 0 20 7 17 13 -6z m477 -130 c0 -5 -7 -10 -15 -10 -8 0
-15 5 -15 10 0 6 7 10 15 10 8 0 15 -4 15 -10z"/>
<path d="M2386 3879 c-43 -10 -104 -33 -135 -49 -65 -36 -129 -86 -120 -95 4
-3 33 5 65 18 71 29 166 60 254 82 67 17 82 28 73 52 -7 17 -42 16 -137 -8z"/>
<path d="M3030 3524 c0 -3 11 -20 24 -37 13 -18 32 -56 41 -85 21 -64 30 -63
15 3 -14 62 -47 125 -65 125 -8 0 -15 -3 -15 -6z"/>
<path d="M2972 3370 c0 -14 2 -19 5 -12 2 6 2 18 0 25 -3 6 -5 1 -5 -13z"/>
<path d="M2351 2164 c0 -11 3 -14 6 -6 3 7 2 16 -1 19 -3 4 -6 -2 -5 -13z"/>
<path d="M2491 2064 c0 -11 3 -14 6 -6 3 7 2 16 -1 19 -3 4 -6 -2 -5 -13z"/>
<path d="M1490 3670 c0 -47 25 -120 42 -120 4 0 5 28 2 63 -9 103 -44 149 -44
57z"/>
<path d="M2592 3214 c-27 -18 -29 -60 -4 -68 9 -3 52 -5 95 -4 58 1 80 5 84
15 10 25 -14 38 -42 23 -21 -11 -29 -11 -49 0 -14 7 -34 10 -45 7 -22 -5 -29
7 -11 18 12 7 13 25 2 25 -4 0 -18 -7 -30 -16z"/>
<path d="M2605 3020 c-16 -4 -54 -8 -82 -9 -29 0 -53 -5 -53 -10 0 -10 39 -8
165 9 44 6 94 12 110 14 17 1 -1 3 -40 3 -38 0 -83 -3 -100 -7z"/>
<path d="M2840 2995 c27 -14 36 -13 25 4 -3 6 -16 11 -28 11 -21 -1 -21 -1 3
-15z"/>
<path d="M2779 2275 c-3 -3 0 -38 7 -78 7 -39 13 -91 13 -113 1 -28 6 -44 16
-48 9 -3 16 -20 16 -43 2 -30 3 -32 6 -10 2 15 7 27 10 27 3 0 35 -23 71 -51
72 -57 79 -57 114 1 l20 35 -28 -32 -29 -33 -76 65 c-75 64 -76 66 -83 122
-11 97 -40 176 -57 158z"/>
<path d="M3081 2174 c0 -11 3 -14 6 -6 3 7 2 16 -1 19 -3 4 -6 -2 -5 -13z"/>
<path d="M2950 2096 c0 -2 8 -10 18 -17 15 -13 16 -12 3 4 -13 16 -21 21 -21
13z"/>
<path d="M2960 1986 c0 -2 8 -10 18 -17 15 -13 16 -12 3 4 -13 16 -21 21 -21
13z"/>
<path d="M3275 1780 c3 -5 11 -10 16 -10 6 0 7 5 4 10 -3 6 -11 10 -16 10 -6
0 -7 -4 -4 -10z"/>
<path d="M1576 1446 c-5 -21 -2 -31 11 -41 24 -18 25 -15 10 31 l-14 38 -7
-28z"/>
<path d="M1457 1423 c-16 -15 -5 -46 28 -81 l36 -37 -26 60 c-29 67 -29 67
-38 58z"/>
<path d="M2330 692 c0 -5 11 -14 25 -20 29 -13 33 -5 8 14 -21 15 -33 18 -33
6z"/>
<path d="M2811 684 c0 -11 3 -14 6 -6 3 7 2 16 -1 19 -3 4 -6 -2 -5 -13z"/>
<path d="M2215 589 c-52 -13 -74 -34 -25 -25 19 3 55 9 80 13 35 5 40 8 25 14
-25 9 -30 9 -80 -2z"/>
<path d="M2741 591 c-24 -15 3 -18 69 -5 l65 12 -60 1 c-33 0 -66 -3 -74 -8z"/>
<path d="M1999 307 c6 -6 6 -19 1 -32 -8 -21 -5 -23 37 -30 25 -4 89 -3 141 0
95 8 95 8 71 26 -16 12 -38 18 -64 16 -31 -1 -39 1 -38 13 2 12 -12 15 -77 16
-51 0 -77 -3 -71 -9z"/>
</g>
</svg>
